<?xml version="1.0" encoding="UTF-8"?>
<svg width="1838px" height="1485px" viewBox="0 0 1838 1485" version="1.1" xmlns="http://www.w3.org/2000/svg" xmlns:xlink="http://www.w3.org/1999/xlink">
    <!-- Generator: Sketch 44.1 (41455) - http://www.bohemiancoding.com/sketch -->
    <title>Untitled</title>
    <desc>Created with Sketch.</desc>
    <defs>
        <polygon id="path-1" points="6.23 0.067 6.23 5.69 0.61 5.69 0.61 0.066 6.23 0.066"></polygon>
        <polygon id="path-3" points="0.67 0.697 10.607 0.697 10.607 10.635 0.67 10.635"></polygon>
        <polygon id="path-5" points="6.23 0.067 6.23 5.69 0.61 5.69 0.61 0.066 6.23 0.066"></polygon>
    </defs>
    <g id="Page-1" stroke="none" stroke-width="1" fill="none" fill-rule="evenodd">
        <g id="star-bg" transform="translate(72.000000, 25.000000)">
            <path d="M675.978,98.117 L678.734,99.624 C678.85967,99.6933156 678.937708,99.8254818 678.937708,99.969 C678.937708,100.112518 678.85967,100.244684 678.734,100.314 L675.978,101.822 C675.912404,101.858348 675.858348,101.912404 675.822,101.978 L674.315,104.734 C674.246129,104.860242 674.113806,104.938787 673.97,104.938787 C673.826194,104.938787 673.693871,104.860242 673.625,104.734 L672.117,101.979 C672.081216,101.911625 672.026686,101.856053 671.96,101.819 L669.205,100.314 C669.07933,100.244684 669.001292,100.112518 669.001292,99.969 C669.001292,99.8254818 669.07933,99.6933156 669.205,99.624 L671.96,98.116 C672.026336,98.0798451 672.080845,98.025336 672.117,97.959 L673.624,95.205 C673.692871,95.0787578 673.825194,95.0002126 673.969,95.0002126 C674.112806,95.0002126 674.245129,95.0787578 674.314,95.205 L675.822,97.959 C675.858,98.026 675.912,98.079 675.978,98.116" id="Shape" fill="#D15D64" fill-rule="nonzero" style="mix-blend-mode: lighten;"></path>
            <path d="M197.057,172.72 L198.417,173.465 C198.543115,173.534454 198.621451,173.667025 198.621451,173.811 C198.621451,173.954975 198.543115,174.087546 198.417,174.157 L197.057,174.9 C196.991268,174.936619 196.937198,174.991036 196.901,175.057 L196.158,176.417 C196.088992,176.543688 195.956264,176.622532 195.812,176.622532 C195.667736,176.622532 195.535008,176.543688 195.466,176.417 L194.723,175.057 C194.686754,174.990732 194.632268,174.936246 194.566,174.9 L193.206,174.157 C193.079885,174.087546 193.001549,173.954975 193.001549,173.811 C193.001549,173.667025 193.079885,173.534454 193.206,173.465 L194.566,172.721 C194.63206,172.685384 194.68654,172.631598 194.723,172.566 L195.466,171.206 C195.535454,171.079885 195.668025,171.001549 195.812,171.001549 C195.955975,171.001549 196.088546,171.079885 196.158,171.206 L196.902,172.566 C196.939,172.632 196.994,172.686 197.059,172.722" id="Shape" fill="#FCD05C" fill-rule="nonzero" style="mix-blend-mode: lighten;"></path>
            <path d="M328.472,230 L327,231.47 L328.472,230 Z M332.47,226 L331,227.472 L332.47,226 Z M328.543,230.163 C329.011018,230.631018 329.693169,230.8138 330.332493,230.642493 C330.971818,230.471187 331.471187,229.971818 331.642493,229.332493 C331.8138,228.693169 331.631018,228.011018 331.163,227.543 C330.694982,227.074982 330.012831,226.8922 329.373507,227.063507 C328.734182,227.234813 328.234813,227.734182 328.063507,228.373507 C327.8922,229.012831 328.074982,229.694982 328.543,230.163 L328.543,230.163 Z" id="Shape" stroke="#7B63AB" stroke-width="1.097" stroke-linecap="round" stroke-linejoin="round"></path>
            <path d="M919.978,144.117 L922.734,145.624 C922.85967,145.693316 922.937708,145.825482 922.937708,145.969 C922.937708,146.112518 922.85967,146.244684 922.734,146.314 L919.978,147.821 C919.911856,147.85843 919.857744,147.91393 919.822,147.981 L918.315,150.735 C918.246129,150.861242 918.113806,150.939787 917.97,150.939787 C917.826194,150.939787 917.693871,150.861242 917.625,150.735 L916.117,147.979 C916.080754,147.912732 916.026268,147.858246 915.96,147.822 L913.205,146.317 C913.07933,146.247684 913.001292,146.115518 913.001292,145.972 C913.001292,145.828482 913.07933,145.696316 913.205,145.627 L915.96,144.119 C916.026197,144.083114 916.080692,144.028967 916.117,143.963 L917.624,141.208 C917.692871,141.081758 917.825194,141.003213 917.969,141.003213 C918.112806,141.003213 918.245129,141.081758 918.314,141.208 L919.822,143.963 C919.858,144.029 919.912,144.083 919.978,144.119" id="Shape" fill="#D15D64" fill-rule="nonzero" style="mix-blend-mode: lighten;"></path>
            <path d="M861.977787,266.114708 L864.732787,267.621708 C864.858457,267.691024 864.936495,267.82319 864.936495,267.966708 C864.936495,268.110226 864.858457,268.242392 864.732787,268.311708 L861.977787,269.819708 C861.912093,269.855925 861.858004,269.910014 861.821787,269.975708 L860.315787,272.731708 C860.247235,272.858979 860.114346,272.93834 859.969787,272.93834 C859.825229,272.93834 859.69234,272.858979 859.623787,272.731708 L858.117787,269.975708 C858.080269,269.909632 858.024792,269.855542 857.957787,269.819708 L855.204787,268.312708 C855.078545,268.243837 855,268.111514 855,267.967708 C855,267.823902 855.078545,267.691579 855.204787,267.622708 L857.959787,266.114708 C858.026055,266.078572 858.08081,266.02451 858.117787,265.958708 L859.623787,263.203708 C859.693103,263.078039 859.825269,263 859.968787,263 C860.112306,263 860.244472,263.078039 860.313787,263.203708 L861.821787,265.959708 C861.858787,266.025708 861.911787,266.079708 861.978787,266.116708" id="Shape" fill="#E98333" fill-rule="nonzero" style="mix-blend-mode: lighten;"></path>
            <path d="M1041.057,106.72 L1042.417,107.465 C1042.54311,107.534454 1042.62145,107.667025 1042.62145,107.811 C1042.62145,107.954975 1042.54311,108.087546 1042.417,108.157 L1041.057,108.9 C1040.99127,108.936619 1040.9372,108.991036 1040.901,109.057 L1040.158,110.417 C1040.08899,110.543688 1039.95626,110.622532 1039.812,110.622532 C1039.66774,110.622532 1039.53501,110.543688 1039.466,110.417 L1038.723,109.057 C1038.68675,108.990732 1038.63227,108.936246 1038.566,108.9 L1037.206,108.157 C1037.07989,108.087546 1037.00155,107.954975 1037.00155,107.811 C1037.00155,107.667025 1037.07989,107.534454 1037.206,107.465 L1038.566,106.721 C1038.63206,106.685384 1038.68654,106.631598 1038.723,106.566 L1039.466,105.206 C1039.53545,105.079885 1039.66803,105.001549 1039.812,105.001549 C1039.95597,105.001549 1040.08855,105.079885 1040.158,105.206 L1040.902,106.566 C1040.939,106.632 1040.994,106.686 1041.059,106.722" id="Shape" fill="#FCD05C" fill-rule="nonzero" style="mix-blend-mode: lighten;"></path>
            <path d="M1142.81353,282.909 C1142.8127,284.514768 1141.5103,285.815829 1139.90453,285.815 C1138.29876,285.814172 1136.9977,284.511768 1136.99853,282.906 C1136.99907,281.867251 1137.55373,280.907692 1138.45358,280.388782 C1139.35343,279.869871 1140.46177,279.870443 1141.36108,280.390282 C1142.2604,280.91012 1142.81407,281.870251 1142.81353,282.909 M50.9785325,348.118 L53.7345325,349.625 C53.861221,349.694008 53.940065,349.826737 53.940065,349.971 C53.940065,350.115264 53.861221,350.247993 53.7345325,350.317 L50.9785325,351.824 C50.912937,351.860349 50.8588807,351.914405 50.8225325,351.98 L49.3155325,354.735 C49.2466618,354.861243 49.1143389,354.939788 48.9705325,354.939788 C48.8267261,354.939788 48.6944032,354.861243 48.6255325,354.735 L47.1175325,351.98 C47.0811344,351.914102 47.0266625,351.859977 46.9605325,351.824 L44.2055325,350.317 C44.078844,350.247993 44,350.115264 44,349.971 C44,349.826737 44.078844,349.694008 44.2055325,349.625 L46.9605325,348.118 C47.0265921,348.082384 47.0810724,348.028598 47.1175325,347.963 L48.6245325,345.208 C48.6934032,345.081758 48.8257261,345.003213 48.9695325,345.003213 C49.1133389,345.003213 49.2456618,345.081758 49.3145325,345.208 L50.8225325,347.964 C50.8585325,348.031 50.9125325,348.084 50.9785325,348.12" id="Shape" fill="#D15D64" fill-rule="nonzero" style="mix-blend-mode: lighten;"></path>
            <path d="M164.057,458.72 L165.417,459.465 C165.543115,459.534454 165.621451,459.667025 165.621451,459.811 C165.621451,459.954975 165.543115,460.087546 165.417,460.157 L164.057,460.9 C163.991268,460.936619 163.937198,460.991036 163.901,461.057 L163.158,462.417 C163.088992,462.543688 162.956264,462.622532 162.812,462.622532 C162.667736,462.622532 162.535008,462.543688 162.466,462.417 L161.723,461.057 C161.686754,460.990732 161.632268,460.936246 161.566,460.9 L160.206,460.157 C160.079885,460.087546 160.001549,459.954975 160.001549,459.811 C160.001549,459.667025 160.079885,459.534454 160.206,459.465 L161.566,458.721 C161.63206,458.685384 161.68654,458.631598 161.723,458.566 L162.466,457.206 C162.535454,457.079885 162.668025,457.001549 162.812,457.001549 C162.955975,457.001549 163.088546,457.079885 163.158,457.206 L163.902,458.566 C163.939,458.632 163.994,458.686 164.059,458.722" id="Shape" fill="#FCD05C" fill-rule="nonzero" style="mix-blend-mode: lighten;"></path>
            <path d="M1495.97771,639.117632 L1498.73271,640.625632 C1498.85883,640.695086 1498.93716,640.827658 1498.93716,640.971632 C1498.93716,641.115607 1498.85883,641.248179 1498.73271,641.317632 L1495.97771,642.823632 C1495.91164,642.859803 1495.85746,642.914333 1495.82171,642.980632 L1494.31571,645.734632 C1494.24716,645.861903 1494.11427,645.941264 1493.96971,645.941264 C1493.82515,645.941264 1493.69226,645.861903 1493.62371,645.734632 L1492.11771,642.979632 C1492.08105,642.912399 1492.0254,642.857448 1491.95771,642.821632 L1489.20471,641.315632 C1489.07802,641.246625 1488.99918,641.113896 1488.99918,640.969632 C1488.99918,640.825369 1489.07802,640.69264 1489.20471,640.623632 L1491.95971,639.115632 C1492.02624,639.080308 1492.08112,639.026473 1492.11771,638.960632 L1493.62371,636.205632 C1493.69258,636.07939 1493.82491,636.000845 1493.96871,636.000845 C1494.11252,636.000845 1494.24484,636.07939 1494.31371,636.205632 L1495.82171,638.960632 C1495.85788,639.026703 1495.91241,639.080885 1495.97871,639.116632 M1210.87671,212.646632 L1212.17671,213.356632 C1212.43671,213.500632 1212.43671,213.876632 1212.17671,214.016632 L1210.87671,214.729632 C1210.81376,214.763839 1210.76176,214.815145 1210.72671,214.877632 L1210.01671,216.177632 C1209.95035,216.297764 1209.82395,216.372344 1209.68671,216.372344 C1209.54947,216.372344 1209.42307,216.297764 1209.35671,216.177632 L1208.64671,214.877632 C1208.61086,214.815071 1208.55821,214.763801 1208.49471,214.729632 L1207.19471,214.017632 C1207.07458,213.951273 1207,213.824874 1207,213.687632 C1207,213.550391 1207.07458,213.423992 1207.19471,213.357632 L1208.49471,212.647632 C1208.55761,212.612452 1208.60953,212.560531 1208.64471,212.497632 L1209.35471,211.197632 C1209.42031,211.075901 1209.54743,211 1209.68571,211 C1209.82399,211 1209.95111,211.075901 1210.01671,211.197632 L1210.72671,212.497632 C1210.76164,212.560725 1210.81362,212.612709 1210.87671,212.647632" id="Shape" fill="#D15D64" fill-rule="nonzero" style="mix-blend-mode: lighten;"></path>
            <path d="M1592.057,388.72 L1593.417,389.465 C1593.54311,389.534454 1593.62145,389.667025 1593.62145,389.811 C1593.62145,389.954975 1593.54311,390.087546 1593.417,390.157 L1592.057,390.9 C1591.99127,390.936619 1591.9372,390.991036 1591.901,391.057 L1591.158,392.417 C1591.08899,392.543688 1590.95626,392.622532 1590.812,392.622532 C1590.66774,392.622532 1590.53501,392.543688 1590.466,392.417 L1589.723,391.057 C1589.68675,390.990732 1589.63227,390.936246 1589.566,390.9 L1588.206,390.157 C1588.07989,390.087546 1588.00155,389.954975 1588.00155,389.811 C1588.00155,389.667025 1588.07989,389.534454 1588.206,389.465 L1589.566,388.721 C1589.63206,388.685384 1589.68654,388.631598 1589.723,388.566 L1590.466,387.206 C1590.53545,387.079885 1590.66803,387.001549 1590.812,387.001549 C1590.95597,387.001549 1591.08855,387.079885 1591.158,387.206 L1591.902,388.566 C1591.939,388.632 1591.994,388.686 1592.059,388.722" id="Shape" fill="#FCD05C" fill-rule="nonzero" style="mix-blend-mode: lighten;"></path>
            <polygon id="Shape" stroke="#E98333" stroke-width="1.097" stroke-linecap="round" stroke-linejoin="round" points="369 391.888 372.554 391 371.667 394.554"></polygon>
            <polygon id="Shape" fill="#00A959" fill-rule="nonzero" style="mix-blend-mode: lighten;" points="480.226 509.018 482.244 510.122 480.226 511.225 479.122 513.243 478.018 511.225 476 510.122 478.018 509.018 479.122 507"></polygon>
            <path d="M488.980787,3.11470812 L491.734787,4.62170812 C491.860457,4.69102375 491.938495,4.82318987 491.938495,4.96670812 C491.938495,5.11022637 491.860457,5.24239249 491.734787,5.31170812 L488.979787,6.81970812 C488.913355,6.85562212 488.858545,6.90973892 488.821787,6.97570812 L487.315787,9.73170812 C487.247235,9.8589787 487.114346,9.9383402 486.969787,9.9383402 C486.825229,9.9383402 486.69234,9.8589787 486.623787,9.73170812 L485.116787,6.97570812 C485.080081,6.91004231 485.025686,6.85599366 484.959787,6.81970812 L482.204787,5.31270812 C482.078545,5.24383743 482,5.1115145 482,4.96770812 C482,4.82390174 482.078545,4.6915788 482.204787,4.62270812 L484.959787,3.11470812 C485.025686,3.07842258 485.080081,3.02437393 485.116787,2.95870812 L486.624787,0.203708119 C486.694103,0.0780385854 486.826269,-7.10542736e-15 486.969787,0 C487.113306,0 487.245472,0.0780385854 487.314787,0.203708119 L488.821787,2.95970812 C488.858787,3.02570812 488.911787,3.07970812 488.978787,3.11670812" id="Shape" fill="#E98333" fill-rule="nonzero" style="mix-blend-mode: lighten;"></path>
            <path d="M611.86,208.256 L611.013,206.656 C610.972046,206.579575 610.909425,206.516954 610.833,206.476 L609.233,205.628 C609.090466,205.552933 609.001237,205.405093 609.001237,205.244 C609.001237,205.082907 609.090466,204.935067 609.233,204.86 L610.833,204.013 C610.909353,203.97195 610.97195,203.909353 611.013,203.833 L611.86,202.233 C611.9352,202.090016 612.083447,202.000485 612.245,202.000485 C612.406553,202.000485 612.5548,202.090016 612.63,202.233 L613.475,203.833 C613.515954,203.909425 613.578575,203.972046 613.655,204.013 L615.255,204.86 C615.565,205.023 615.565,205.465 615.255,205.628 L613.655,206.475 C613.57843,206.515759 613.515759,206.57843 613.475,206.655 L612.629,208.255 C612.5538,208.397984 612.405553,208.487515 612.244,208.487515 C612.082447,208.487515 611.9342,208.397984 611.859,208.255 L611.86,208.256 Z" id="Shape" stroke="#7B63AB" stroke-width="1.097" stroke-linecap="round" stroke-linejoin="round"></path>
            <path d="M551.978,167.117 L554.734,168.624 C554.85967,168.693316 554.937708,168.825482 554.937708,168.969 C554.937708,169.112518 554.85967,169.244684 554.734,169.314 L551.978,170.821 C551.911856,170.85843 551.857744,170.91393 551.822,170.981 L550.315,173.735 C550.246129,173.861242 550.113806,173.939787 549.97,173.939787 C549.826194,173.939787 549.693871,173.861242 549.625,173.735 L548.117,170.979 C548.080754,170.912732 548.026268,170.858246 547.96,170.822 L545.205,169.317 C545.07933,169.247684 545.001292,169.115518 545.001292,168.972 C545.001292,168.828482 545.07933,168.696316 545.205,168.627 L547.96,167.119 C548.026197,167.083114 548.080692,167.028967 548.117,166.963 L549.624,164.208 C549.692871,164.081758 549.825194,164.003213 549.969,164.003213 C550.112806,164.003213 550.245129,164.081758 550.314,164.208 L551.822,166.963 C551.858,167.029 551.912,167.083 551.978,167.119" id="Shape" fill="#D15D64" fill-rule="nonzero" style="mix-blend-mode: lighten;"></path>
            <path d="M135.98,133.117 L138.734,134.624 C138.85967,134.693316 138.937708,134.825482 138.937708,134.969 C138.937708,135.112518 138.85967,135.244684 138.734,135.314 L135.978,136.822 C135.912306,136.858217 135.858217,136.912306 135.822,136.978 L134.315,139.734 C134.246129,139.860242 134.113806,139.938787 133.97,139.938787 C133.826194,139.938787 133.693871,139.860242 133.625,139.734 L132.118,136.978 C132.080482,136.911924 132.025005,136.857834 131.958,136.822 L129.206,135.315 C129.079758,135.246129 129.001213,135.113806 129.001213,134.97 C129.001213,134.826194 129.079758,134.693871 129.206,134.625 L131.96,133.117 C132.025899,133.080714 132.080294,133.026666 132.117,132.961 L133.625,130.206 C133.694316,130.08033 133.826482,130.002292 133.97,130.002292 C134.113518,130.002292 134.245684,130.08033 134.315,130.206 L135.822,132.962 C135.858,133.028 135.912,133.082 135.978,133.119" id="Shape" fill="#E98333" fill-rule="nonzero" style="mix-blend-mode: lighten;"></path>
            <path d="M257.813,62.907 C257.812172,64.5127679 256.509768,65.8138284 254.904,65.813 C253.298232,65.8121716 251.997172,64.5097679 251.998,62.904 C251.998828,61.2982321 253.301232,59.9971716 254.907,59.998 C256.512768,59.9988284 257.813828,61.3012321 257.813,62.907" id="Shape" fill="#D15D64" fill-rule="nonzero" style="mix-blend-mode: lighten;"></path>
            <path d="M8.86,211.256 L8.013,209.656 C7.97204597,209.579575 7.90942478,209.516954 7.833,209.476 L6.233,208.628 C6.09046593,208.552933 6.00123748,208.405093 6.00123748,208.244 C6.00123748,208.082907 6.09046593,207.935067 6.233,207.86 L7.833,207.013 C7.90935333,206.97195 7.97194981,206.909353 8.013,206.833 L8.86,205.233 C8.93520008,205.090016 9.08344678,205.000485 9.245,205.000485 C9.40655322,205.000485 9.55479992,205.090016 9.63,205.233 L10.475,206.833 C10.515954,206.909425 10.5785752,206.972046 10.655,207.013 L12.255,207.86 C12.565,208.023 12.565,208.465 12.255,208.628 L10.655,209.475 C10.5784304,209.515759 10.5157587,209.57843 10.475,209.655 L9.629,211.255 C9.55379992,211.397984 9.40555322,211.487515 9.244,211.487515 C9.08244678,211.487515 8.93420008,211.397984 8.859,211.255 L8.86,211.256 Z" id="Shape" stroke="#7B63AB" stroke-width="1.097" stroke-linecap="round" stroke-linejoin="round"></path>
            <path d="M574.978532,931.114787 L577.733532,932.621787 C577.859647,932.691241 577.937983,932.823813 577.937983,932.967787 C577.937983,933.111762 577.859647,933.244333 577.733532,933.313787 L574.978532,934.820787 C574.912602,934.856689 574.858434,934.910857 574.822532,934.976787 L573.316532,937.731787 C573.24798,937.859058 573.115091,937.938419 572.970532,937.938419 C572.825974,937.938419 572.693085,937.859058 572.624532,937.731787 L571.118532,934.976787 C571.081557,934.910294 571.025941,934.856068 570.958532,934.820787 L568.205532,933.313787 C568.078844,933.24478 568,933.112051 568,932.967787 C568,932.823524 568.078844,932.690795 568.205532,932.621787 L570.960532,931.114787 C571.027063,931.079463 571.08194,931.025628 571.118532,930.959787 L572.624532,928.204787 C572.693403,928.078545 572.825726,928 572.969532,928 C573.113339,928 573.245662,928.078545 573.314532,928.204787 L574.822532,930.960787 C574.858703,931.026857 574.913233,931.08104 574.979532,931.116787" id="Shape" fill="#D15D64" fill-rule="nonzero" style="mix-blend-mode: lighten;"></path>
            <path d="M1595.057,229.722 L1596.417,230.465 C1596.54311,230.534454 1596.62145,230.667025 1596.62145,230.811 C1596.62145,230.954975 1596.54311,231.087546 1596.417,231.157 L1595.057,231.901 C1594.99117,231.937487 1594.93707,231.991937 1594.901,232.058 L1594.158,233.418 C1594.08855,233.544115 1593.95597,233.622451 1593.812,233.622451 C1593.66803,233.622451 1593.53545,233.544115 1593.466,233.418 L1592.723,232.058 C1592.68669,231.992033 1592.6322,231.937886 1592.566,231.902 L1591.206,231.159 C1591.07989,231.089546 1591.00155,230.956975 1591.00155,230.813 C1591.00155,230.669025 1591.07989,230.536454 1591.206,230.467 L1592.566,229.724 C1592.63227,229.687754 1592.68675,229.633268 1592.723,229.567 L1593.466,228.207 C1593.53545,228.080885 1593.66803,228.002549 1593.812,228.002549 C1593.95597,228.002549 1594.08855,228.080885 1594.158,228.207 L1594.902,229.567 C1594.93847,229.6331 1594.9929,229.687531 1595.059,229.724" id="Shape" fill="#7B63AB" fill-rule="nonzero" style="mix-blend-mode: lighten;"></path>
            <path d="M1228.87853,64.6456324 L1230.17853,65.3556324 C1230.43853,65.5006324 1230.43853,65.8756324 1230.17853,66.0176324 L1228.87853,66.7276324 C1228.81531,66.7623796 1228.76328,66.8144071 1228.72853,66.8776324 L1228.01853,68.1776324 C1227.95217,68.2977639 1227.82578,68.3723442 1227.68853,68.3723442 C1227.55129,68.3723442 1227.42489,68.2977639 1227.35853,68.1776324 L1226.64853,66.8776324 C1226.61298,66.814333 1226.5603,66.7623432 1226.49653,66.7276324 L1225.19653,66.0176324 C1225.07538,65.9515799 1225,65.8246184 1225,65.6866324 C1225,65.5486464 1225.07538,65.4216849 1225.19653,65.3556324 L1226.49653,64.6456324 C1226.55943,64.6104522 1226.61135,64.5585314 1226.64653,64.4956324 L1227.35653,63.1976324 C1227.42213,63.0759014 1227.54925,63 1227.68753,63 C1227.82581,63 1227.95294,63.0759014 1228.01853,63.1976324 L1228.72853,64.4956324 C1228.76346,64.5587252 1228.81544,64.6107089 1228.87853,64.6456324" id="Shape" fill="#D15D64" fill-rule="nonzero" style="mix-blend-mode: lighten;"></path>
            <path d="M1621.057,122.72 L1622.417,123.465 C1622.54311,123.534454 1622.62145,123.667025 1622.62145,123.811 C1622.62145,123.954975 1622.54311,124.087546 1622.417,124.157 L1621.057,124.9 C1620.99127,124.936619 1620.9372,124.991036 1620.901,125.057 L1620.158,126.417 C1620.08899,126.543688 1619.95626,126.622532 1619.812,126.622532 C1619.66774,126.622532 1619.53501,126.543688 1619.466,126.417 L1618.723,125.057 C1618.68675,124.990732 1618.63227,124.936246 1618.566,124.9 L1617.206,124.157 C1617.07989,124.087546 1617.00155,123.954975 1617.00155,123.811 C1617.00155,123.667025 1617.07989,123.534454 1617.206,123.465 L1618.566,122.721 C1618.63206,122.685384 1618.68654,122.631598 1618.723,122.566 L1619.466,121.206 C1619.53545,121.079885 1619.66803,121.001549 1619.812,121.001549 C1619.95597,121.001549 1620.08855,121.079885 1620.158,121.206 L1620.902,122.566 C1620.939,122.632 1620.994,122.686 1621.059,122.722" id="Shape" fill="#FCD05C" fill-rule="nonzero" style="mix-blend-mode: lighten;"></path>
            <g id="Group" transform="translate(1538.000000, 440.000000)">
                <g id="Clipped">
                    <mask id="mask-2" fill="white">
                        <use xlink:href="#path-1"></use>
                    </mask>
                    <g id="a"></g>
                    <path d="M4.667,1.79 L6.027,2.533 C6.15368849,2.6020077 6.2325325,2.73473623 6.2325325,2.879 C6.2325325,3.02326377 6.15368849,3.1559923 6.027,3.225 L4.667,3.968 C4.60103581,4.00419843 4.54661918,4.05826845 4.51,4.124 L3.767,5.484 C3.6979923,5.61068849 3.56526377,5.6895325 3.421,5.6895325 C3.27673623,5.6895325 3.1440077,5.61068849 3.075,5.484 L2.331,4.124 C2.29505369,4.058442 2.24132548,4.00436716 2.176,3.968 L0.816,3.225 C0.689885359,3.15554611 0.611549206,3.02297481 0.611549206,2.879 C0.611549206,2.73502519 0.689885359,2.60245389 0.816,2.533 L2.176,1.789 C2.24207013,1.75282936 2.29625227,1.6982999 2.332,1.632 L3.077,0.272 C3.1460077,0.145311513 3.27873623,0.0664675038 3.423,0.0664675038 C3.56726377,0.0664675038 3.6999923,0.145311513 3.769,0.272 L4.512,1.632 C4.548,1.698 4.602,1.752 4.669,1.788" id="Shape" fill="#7B63AB" fill-rule="nonzero" mask="url(#mask-2)"></path>
                </g>
            </g>
            <path d="M1360.97779,799.116787 L1363.73279,800.623787 C1363.85846,800.693103 1363.9365,800.825269 1363.9365,800.968787 C1363.9365,801.112306 1363.85846,801.244472 1363.73279,801.313787 L1360.97779,802.820787 C1360.91159,802.856673 1360.8571,802.910821 1360.82079,802.976787 L1359.31579,805.731787 C1359.24723,805.859058 1359.11435,805.938419 1358.96979,805.938419 C1358.82523,805.938419 1358.69234,805.859058 1358.62379,805.731787 L1357.11779,802.976787 C1357.08149,802.910471 1357.02656,802.856238 1356.95979,802.820787 L1354.20479,801.313787 C1354.07855,801.244917 1354,801.112594 1354,800.968787 C1354,800.824981 1354.07855,800.692658 1354.20479,800.623787 L1356.95979,799.116787 C1357.02623,799.080771 1357.08077,799.026227 1357.11679,798.959787 L1358.62279,796.204787 C1358.69166,796.078545 1358.82398,796 1358.96779,796 C1359.11159,796 1359.24392,796.078545 1359.31279,796.204787 L1360.82079,798.960787 C1360.85879,799.027787 1360.91279,799.082787 1360.98079,799.118787" id="Shape" fill="#FCD05C" fill-rule="nonzero" style="mix-blend-mode: lighten;"></path>
            <path d="M1231.877,344.646 L1233.177,345.356 C1233.437,345.5 1233.437,345.876 1233.177,346.016 L1231.877,346.728 C1231.81377,346.762747 1231.76175,346.814775 1231.727,346.878 L1231.017,348.176 C1230.95064,348.296132 1230.82424,348.370712 1230.687,348.370712 C1230.54976,348.370712 1230.42336,348.296132 1230.357,348.176 L1229.647,346.876 C1229.61115,346.813438 1229.5585,346.762168 1229.495,346.728 L1228.195,346.016 C1228.07487,345.949641 1228.00029,345.823241 1228.00029,345.686 C1228.00029,345.548759 1228.07487,345.422359 1228.195,345.356 L1229.495,344.646 C1229.5579,344.61082 1229.60982,344.558899 1229.645,344.496 L1230.355,343.196 C1230.4206,343.074269 1230.54772,342.998368 1230.686,342.998368 C1230.82428,342.998368 1230.9514,343.074269 1231.017,343.196 L1231.727,344.496 C1231.76192,344.559093 1231.81391,344.611077 1231.877,344.646" id="Shape" fill="#D15D64" fill-rule="nonzero" style="mix-blend-mode: lighten;"></path>
            <path d="M1316.05545,274.718451 L1317.41545,275.463451 C1317.54157,275.532905 1317.6199,275.665476 1317.6199,275.809451 C1317.6199,275.953426 1317.54157,276.085997 1317.41545,276.155451 L1316.05545,276.898451 C1315.98972,276.93507 1315.93565,276.989487 1315.89945,277.055451 L1315.15645,278.415451 C1315.08744,278.542139 1314.95471,278.620983 1314.81045,278.620983 C1314.66619,278.620983 1314.53346,278.542139 1314.46445,278.415451 L1313.72145,277.055451 C1313.6852,276.989183 1313.63072,276.934697 1313.56445,276.898451 L1312.20445,276.155451 C1312.07834,276.085997 1312,275.953426 1312,275.809451 C1312,275.665476 1312.07834,275.532905 1312.20445,275.463451 L1313.56445,274.719451 C1313.63051,274.683835 1313.68499,274.630048 1313.72145,274.564451 L1314.46445,273.204451 C1314.5339,273.078336 1314.66648,273 1314.81045,273 C1314.95443,273 1315.087,273.078336 1315.15645,273.204451 L1315.90045,274.564451 C1315.93745,274.630451 1315.99245,274.684451 1316.05745,274.720451" id="Shape" fill="#FCD05C" fill-rule="nonzero" style="mix-blend-mode: lighten;"></path>
            <polygon id="Shape" stroke="#00A959" stroke-width="1.097" stroke-linecap="round" stroke-linejoin="round" points="1670 456.524 1671.762 455.982 1673.524 456.524 1672.981 454.762 1673.525 453 1671.763 453.543 1670 453 1670.542 454.762"></polygon>
            <g id="Group" transform="translate(1105.000000, 885.000000)">
                <g id="Clipped">
                    <mask id="mask-4" fill="white">
                        <use xlink:href="#path-3"></use>
                    </mask>
                    <g id="c"></g>
                    <path d="M7.648,3.813 L10.403,5.32 C10.5286695,5.38931563 10.6067081,5.52148175 10.6067081,5.665 C10.6067081,5.80851825 10.5286695,5.94068437 10.403,6.01 L7.648,7.52 C7.58156041,7.55601631 7.52701631,7.61056041 7.491,7.677 L5.985,10.43 C5.91568437,10.5556695 5.78351825,10.6337081 5.64,10.6337081 C5.49648175,10.6337081 5.36431563,10.5556695 5.295,10.43 L3.785,7.675 C3.74898369,7.60856041 3.69443959,7.55401631 3.628,7.518 L0.873,6.01 C0.747330466,5.94068437 0.669291881,5.80851825 0.669291881,5.665 C0.669291881,5.52148175 0.747330466,5.38931563 0.873,5.32 L3.63,3.813 C3.69607013,3.77682936 3.75025227,3.7222999 3.786,3.656 L5.293,0.9 C5.36231563,0.774330466 5.49448175,0.696291881 5.638,0.696291881 C5.78151825,0.696291881 5.91368437,0.774330466 5.983,0.9 L7.491,3.656 C7.52728456,3.72258006 7.58219091,3.7771389 7.649,3.813" id="Shape" fill="#D15D64" fill-rule="nonzero" mask="url(#mask-4)"></path>
                </g>
            </g>
            <g id="Group" stroke-linecap="round" stroke-linejoin="round" transform="translate(27.000000, 515.000000)" stroke="#E98333" stroke-width="1.097">
                <path d="M1.472,4 L0,5.47 L1.472,4 Z M5.47,0 L4,1.47 L5.47,0 Z M1.543,4.163 C2.26649302,4.88649302 3.43950698,4.88649302 4.163,4.163 C4.88649302,3.43950698 4.88649302,2.26649302 4.163,1.543 C3.43950695,0.819507148 2.26649313,0.819507229 1.54300018,1.54300018 C0.819507229,2.26649313 0.819507148,3.43950695 1.543,4.163 L1.543,4.163 Z" id="Shape"></path>
            </g>
            <path d="M197.057,1206.9 L198.417,1206.157 C198.543115,1206.08755 198.621451,1205.95497 198.621451,1205.811 C198.621451,1205.66703 198.543115,1205.53445 198.417,1205.465 L197.057,1204.722 C196.991268,1204.68538 196.937198,1204.63096 196.901,1204.565 L196.158,1203.205 C196.088992,1203.07831 195.956264,1202.99947 195.812,1202.99947 C195.667736,1202.99947 195.535008,1203.07831 195.466,1203.205 L194.723,1204.565 C194.686754,1204.63127 194.632268,1204.68575 194.566,1204.722 L193.206,1205.465 C193.079885,1205.53445 193.001549,1205.66703 193.001549,1205.811 C193.001549,1205.95497 193.079885,1206.08755 193.206,1206.157 L194.566,1206.901 C194.632,1206.938 194.686,1206.991 194.723,1207.058 L195.466,1208.418 C195.616,1208.691 196.008,1208.691 196.158,1208.418 L196.902,1207.058 C196.938487,1206.99217 196.992937,1206.93807 197.059,1206.902" id="Shape" fill="#FCD05C" fill-rule="nonzero" style="mix-blend-mode: lighten;"></path>
            <path d="M1098.81171,742.905787 C1098.81088,741.300019 1097.50848,739.998959 1095.90271,739.999787 C1094.29694,740.000616 1092.99588,741.303019 1092.99671,742.908787 C1092.99781,744.514555 1094.30044,745.815392 1095.90621,745.814287 C1097.51198,745.813182 1098.81281,744.510555 1098.81171,742.904787 M6.97670812,645.821787 L9.73270812,644.315787 C9.85939661,644.24678 9.93824062,644.114051 9.93824062,643.969787 C9.93824062,643.825524 9.85939661,643.692795 9.73270812,643.623787 L6.97670812,642.116787 C6.91097657,642.080168 6.85690655,642.025752 6.82070812,641.959787 L5.31370812,639.204787 C5.24483743,639.078545 5.1125145,639 4.96870812,639 C4.82490174,639 4.6925788,639.078545 4.62370812,639.204787 L3.11570812,641.959787 C3.07946214,642.026055 3.02497599,642.080541 2.95870812,642.116787 L0.203708119,643.623787 C0.0780385854,643.693103 0,643.825269 0,643.968787 C0,644.112306 0.0780385854,644.244472 0.203708119,644.313787 L2.95870812,645.821787 C3.02470812,645.857787 3.07870812,645.911787 3.11570812,645.978787 L4.62270812,648.731787 C4.77270812,649.005787 5.16470812,649.005787 5.31270812,648.731787 L6.82070812,645.976787 C6.85692508,645.911093 6.91101381,645.857004 6.97670812,645.820787" id="Shape" fill="#D15D64" fill-rule="nonzero" style="mix-blend-mode: lighten;"></path>
            <path d="M164.057,799.9 L165.417,799.156 C165.543115,799.086546 165.621451,798.953975 165.621451,798.81 C165.621451,798.666025 165.543115,798.533454 165.417,798.464 L164.057,797.721 C163.991404,797.684652 163.937348,797.630596 163.901,797.565 L163.158,796.205 C163.088992,796.078312 162.956264,795.999468 162.812,795.999468 C162.667736,795.999468 162.535008,796.078312 162.466,796.205 L161.723,797.565 C161.686907,797.631637 161.632407,797.686485 161.566,797.723 L160.206,798.465 C160.079885,798.534454 160.001549,798.667025 160.001549,798.811 C160.001549,798.954975 160.079885,799.087546 160.206,799.157 L161.566,799.902 C161.632,799.939 161.686,799.992 161.723,800.058 L162.466,801.418 C162.616,801.691 163.008,801.691 163.158,801.418 L163.902,800.058 C163.938487,799.992169 163.992937,799.938066 164.059,799.902" id="Shape" fill="#FCD05C" fill-rule="nonzero" style="mix-blend-mode: lighten;"></path>
            <path d="M840.978532,884.823632 L843.733532,883.317632 C843.860156,883.248331 843.938894,883.115479 843.938894,882.971132 C843.938894,882.826785 843.860156,882.693933 843.733532,882.624632 L840.978532,881.117632 C840.912602,881.08173 840.858434,881.027563 840.822532,880.961632 L839.316532,878.206632 C839.24798,878.079362 839.115091,878 838.970532,878 C838.825974,878 838.693085,878.079362 838.624532,878.206632 L837.118532,880.961632 C837.081557,881.028126 837.025941,881.082352 836.958532,881.117632 L834.205532,882.624632 C834.078844,882.69364 834,882.826368 834,882.970632 C834,883.114896 834.078844,883.247624 834.205532,883.316632 L836.960532,884.823632 C837.027342,884.859493 837.082248,884.914052 837.118532,884.980632 L838.624532,887.733632 C838.774532,888.007632 839.167532,888.007632 839.314532,887.733632 L840.822532,884.978632 C840.858703,884.912562 840.913233,884.85838 840.979532,884.822632" id="Shape" fill="#D15D64" fill-rule="nonzero" style="mix-blend-mode: lighten;"></path>
            <path d="M1360.057,1091.9 L1361.417,1091.157 C1361.54311,1091.08755 1361.62145,1090.95497 1361.62145,1090.811 C1361.62145,1090.66703 1361.54311,1090.53445 1361.417,1090.465 L1360.057,1089.721 C1359.99144,1089.68505 1359.93737,1089.63133 1359.901,1089.566 L1359.158,1088.206 C1359.08855,1088.07989 1358.95597,1088.00155 1358.812,1088.00155 C1358.66803,1088.00155 1358.53545,1088.07989 1358.466,1088.206 L1357.723,1089.566 C1357.68669,1089.63197 1357.6322,1089.68611 1357.566,1089.722 L1356.206,1090.467 C1356.07989,1090.53645 1356.00155,1090.66903 1356.00155,1090.813 C1356.00155,1090.95697 1356.07989,1091.08955 1356.206,1091.159 L1357.566,1091.902 C1357.632,1091.938 1357.686,1091.992 1357.723,1092.059 L1358.466,1093.419 C1358.616,1093.692 1359.008,1093.692 1359.158,1093.419 L1359.902,1092.059 C1359.93847,1091.9929 1359.9929,1091.93847 1360.059,1091.902" id="Shape" fill="#7B63AB" fill-rule="nonzero" style="mix-blend-mode: lighten;"></path>
            <polygon id="Shape" stroke="#E98333" stroke-width="1.097" stroke-linecap="round" stroke-linejoin="round" points="369 900.666 372.554 901.554 371.667 898"></polygon>
            <polygon id="Shape" fill="#00A959" fill-rule="nonzero" style="mix-blend-mode: lighten;" points="480.226 751.225 482.244 750.121 480.226 749.019 479.122 747.001 478.018 749.019 476 750.12 478.018 751.225 479.122 753.243"></polygon>
            <path d="M683.978787,493.820787 L686.732787,492.314787 C686.859476,492.24578 686.93832,492.113051 686.93832,491.968787 C686.93832,491.824524 686.859476,491.691795 686.732787,491.622787 L683.976787,490.115787 C683.911093,490.07957 683.857004,490.025482 683.820787,489.959787 L682.313787,487.204787 C682.244917,487.078545 682.112594,487 681.968787,487 C681.824981,487 681.692658,487.078545 681.623787,487.204787 L680.116787,489.960787 C680.079419,490.027233 680.023928,490.081683 679.956787,490.117787 L677.204787,491.624787 C677.078545,491.693658 677,491.825981 677,491.969787 C677,492.113594 677.078545,492.245917 677.204787,492.314787 L679.958787,493.822787 C680.024787,493.858787 680.078787,493.912787 680.115787,493.979787 L681.623787,496.733787 C681.773787,497.007787 682.163787,497.007787 682.313787,496.733787 L683.820787,493.978787 C683.856701,493.912355 683.910818,493.857545 683.976787,493.820787" id="Shape" fill="#E98333" fill-rule="nonzero" style="mix-blend-mode: lighten;"></path>
            <path d="M661.906,787 C660.300232,787.000829 658.999172,788.303232 659,789.909 C659.000715,790.94775 659.555542,791.907213 660.455482,792.425969 C661.355423,792.944725 662.463756,792.943963 663.362982,792.423969 C664.262209,791.903976 664.815715,790.94375 664.815,789.905 C664.814172,788.300232 663.511768,786.999172 661.906,787 Z" id="Shape" fill="#D15D64" fill-rule="nonzero" style="mix-blend-mode: lighten;"></path>
            <path d="M8.86,1180.232 L8.013,1181.832 C7.97204597,1181.90842 7.90942478,1181.97105 7.833,1182.012 L6.233,1182.86 C6.09046593,1182.93507 6.00123748,1183.08291 6.00123748,1183.244 C6.00123748,1183.40509 6.09046593,1183.55293 6.233,1183.628 L7.833,1184.475 C7.909,1184.515 7.973,1184.579 8.013,1184.655 L8.86,1186.255 C9.023,1186.565 9.465,1186.565 9.63,1186.255 L10.475,1184.655 C10.515954,1184.57858 10.5785752,1184.51595 10.655,1184.475 L12.255,1183.628 C12.3975341,1183.55293 12.4867625,1183.40509 12.4867625,1183.244 C12.4867625,1183.08291 12.3975341,1182.93507 12.255,1182.86 L10.655,1182.013 C10.5784304,1181.97224 10.5157587,1181.90957 10.475,1181.833 L9.629,1180.233 C9.55379992,1180.09002 9.40555322,1180.00048 9.244,1180.00048 C9.08244678,1180.00048 8.93420008,1180.09002 8.859,1180.233 L8.86,1180.232 Z" id="Shape" stroke="#7B63AB" stroke-width="1.097" stroke-linecap="round" stroke-linejoin="round"></path>
            <path d="M802.733532,629.317632 C802.860156,629.248331 802.938894,629.115479 802.938894,628.971132 C802.938894,628.826785 802.860156,628.693933 802.733532,628.624632 L799.978532,627.117632 C799.912602,627.08173 799.858434,627.027563 799.822532,626.961632 L798.316532,624.206632 C798.24798,624.079362 798.115091,624 797.970532,624 C797.825974,624 797.693085,624.079362 797.624532,624.206632 L796.118532,626.961632 C796.081557,627.028126 796.025941,627.082352 795.958532,627.117632 L793.205532,628.624632 C793.078844,628.69364 793,628.826368 793,628.970632 C793,629.114896 793.078844,629.247624 793.205532,629.316632 L795.960532,630.823632 C796.027342,630.859493 796.082248,630.914052 796.118532,630.980632 L797.624532,633.733632 C797.774532,634.007632 798.167532,634.007632 798.314532,633.733632 L799.822532,630.978632 C799.858703,630.912562 799.913233,630.85838 799.979532,630.822632 L802.733532,629.317632 Z" id="Shape" fill="#D15D64" fill-rule="nonzero" style="mix-blend-mode: lighten;"></path>
            <path d="M1595.057,1161.9 L1596.417,1161.157 C1596.54311,1161.08755 1596.62145,1160.95497 1596.62145,1160.811 C1596.62145,1160.66703 1596.54311,1160.53445 1596.417,1160.465 L1595.057,1159.721 C1594.99144,1159.68505 1594.93737,1159.63133 1594.901,1159.566 L1594.158,1158.206 C1594.08855,1158.07989 1593.95597,1158.00155 1593.812,1158.00155 C1593.66803,1158.00155 1593.53545,1158.07989 1593.466,1158.206 L1592.723,1159.566 C1592.68669,1159.63197 1592.6322,1159.68611 1592.566,1159.722 L1591.206,1160.467 C1591.07989,1160.53645 1591.00155,1160.66903 1591.00155,1160.813 C1591.00155,1160.95697 1591.07989,1161.08955 1591.206,1161.159 L1592.566,1161.902 C1592.632,1161.938 1592.686,1161.992 1592.723,1162.059 L1593.466,1163.419 C1593.616,1163.692 1594.008,1163.692 1594.158,1163.419 L1594.902,1162.059 C1594.93847,1161.9929 1594.9929,1161.93847 1595.059,1161.902" id="Shape" fill="#7B63AB" fill-rule="nonzero" style="mix-blend-mode: lighten;"></path>
            <path d="M983.878534,722.726712 L985.178534,722.016712 C985.298665,721.950352 985.373246,721.823953 985.373246,721.686712 C985.373246,721.549471 985.298665,721.423071 985.178534,721.356712 L983.878534,720.644712 C983.815309,720.609965 983.763281,720.557937 983.728534,720.494712 L983.018534,719.194712 C982.952175,719.07458 982.825775,719 982.688534,719 C982.551293,719 982.424893,719.07458 982.358534,719.194712 L981.648534,720.494712 C981.612982,720.558011 981.560299,720.610001 981.496534,720.644712 L980.196534,721.354712 C980.075384,721.420764 980,721.547726 980,721.685712 C980,721.823698 980.075384,721.950659 980.196534,722.016712 L981.496534,722.726712 C981.559433,722.761892 981.611354,722.813813 981.646534,722.876712 L982.356534,724.176712 C982.422132,724.298443 982.549253,724.374344 982.687534,724.374344 C982.825815,724.374344 982.952936,724.298443 983.018534,724.176712 L983.728534,722.876712 C983.763457,722.813619 983.815441,722.761635 983.878534,722.726712" id="Shape" fill="#D15D64" fill-rule="nonzero" style="mix-blend-mode: lighten;"></path>
            <path d="M1621.057,1255.9 L1622.417,1255.157 C1622.54311,1255.08755 1622.62145,1254.95497 1622.62145,1254.811 C1622.62145,1254.66703 1622.54311,1254.53445 1622.417,1254.465 L1621.057,1253.722 C1620.99127,1253.68538 1620.9372,1253.63096 1620.901,1253.565 L1620.158,1252.205 C1620.08899,1252.07831 1619.95626,1251.99947 1619.812,1251.99947 C1619.66774,1251.99947 1619.53501,1252.07831 1619.466,1252.205 L1618.723,1253.565 C1618.68675,1253.63127 1618.63227,1253.68575 1618.566,1253.722 L1617.206,1254.465 C1617.07989,1254.53445 1617.00155,1254.66703 1617.00155,1254.811 C1617.00155,1254.95497 1617.07989,1255.08755 1617.206,1255.157 L1618.566,1255.901 C1618.632,1255.938 1618.686,1255.991 1618.723,1256.058 L1619.466,1257.418 C1619.616,1257.691 1620.008,1257.691 1620.158,1257.418 L1620.902,1256.058 C1620.93849,1255.99217 1620.99294,1255.93807 1621.059,1255.902" id="Shape" fill="#FCD05C" fill-rule="nonzero" style="mix-blend-mode: lighten;"></path>
            <g id="Group" transform="translate(1548.500000, 989.000000) scale(-1, 1) rotate(-180.000000) translate(-1548.500000, -989.000000) translate(1545.000000, 986.000000)">
                <g id="Clipped">
                    <mask id="mask-6" fill="white">
                        <use xlink:href="#path-5"></use>
                    </mask>
                    <g id="e"></g>
                    <path d="M4.667,1.79 L6.027,2.533 C6.15368849,2.6020077 6.2325325,2.73473623 6.2325325,2.879 C6.2325325,3.02326377 6.15368849,3.1559923 6.027,3.225 L4.667,3.968 C4.60103581,4.00419843 4.54661918,4.05826845 4.51,4.124 L3.767,5.484 C3.6979923,5.61068849 3.56526377,5.6895325 3.421,5.6895325 C3.27673623,5.6895325 3.1440077,5.61068849 3.075,5.484 L2.331,4.124 C2.29505369,4.058442 2.24132548,4.00436716 2.176,3.968 L0.816,3.225 C0.689885359,3.15554611 0.611549206,3.02297481 0.611549206,2.879 C0.611549206,2.73502519 0.689885359,2.60245389 0.816,2.533 L2.176,1.789 C2.24207013,1.75282936 2.29625227,1.6982999 2.332,1.632 L3.077,0.272 C3.1460077,0.145311513 3.27873623,0.0664675038 3.423,0.0664675038 C3.56726377,0.0664675038 3.6999923,0.145311513 3.769,0.272 L4.512,1.632 C4.548,1.698 4.602,1.752 4.669,1.788" id="Shape" fill="#7B63AB" fill-rule="nonzero" mask="url(#mask-6)"></path>
                </g>
            </g>
            <g id="Group" stroke-linecap="round" stroke-linejoin="round" transform="translate(816.000000, 746.000000)" stroke="#7B63AB" stroke-width="1.097">
                <path d="M8,3 L10.78,0.22 L8,3 Z M0,11 L2.78,8.22 L0,11 Z M5.607,0.906 C5.607,-0.091 0.124,5.392 1.121,5.392 C0.125,5.392 5.608,10.876 5.608,9.879 C5.608,10.875 11.091,5.391 10.094,5.391 C11.091,5.391 5.608,-0.092 5.608,0.905 L5.607,0.906 Z" id="Shape"></path>
            </g>
            <path d="M1172.97779,756.822632 L1175.73279,755.315632 C1175.85948,755.246624 1175.93832,755.113896 1175.93832,754.969632 C1175.93832,754.825368 1175.85948,754.69264 1175.73279,754.623632 L1172.97779,753.117632 C1172.91159,753.081746 1172.8571,753.027599 1172.82079,752.961632 L1171.31579,750.206632 C1171.24723,750.079362 1171.11435,750 1170.96979,750 C1170.82523,750 1170.69234,750.079362 1170.62379,750.206632 L1169.11779,752.961632 C1169.08164,753.028318 1169.0267,753.082913 1168.95979,753.118632 L1166.20479,754.625632 C1166.07855,754.694503 1166,754.826826 1166,754.970632 C1166,755.114438 1166.07855,755.246761 1166.20479,755.315632 L1168.95979,756.823632 C1169.02623,756.859648 1169.08077,756.914192 1169.11679,756.980632 L1170.62279,759.734632 C1170.77279,760.008632 1171.16579,760.008632 1171.31279,759.734632 L1172.82079,756.979632 C1172.85769,756.912576 1172.91327,756.857685 1172.98079,756.821632" id="Shape" fill="#FCD05C" fill-rule="nonzero" style="mix-blend-mode: lighten;"></path>
            <path d="M1231.877,968.727 L1233.177,968.017 C1233.29713,967.950641 1233.37171,967.824241 1233.37171,967.687 C1233.37171,967.549759 1233.29713,967.423359 1233.177,967.357 L1231.877,966.645 C1231.81377,966.610253 1231.76175,966.558225 1231.727,966.495 L1231.017,965.195 C1230.95064,965.074868 1230.82424,965.000288 1230.687,965.000288 C1230.54976,965.000288 1230.42336,965.074868 1230.357,965.195 L1229.647,966.495 C1229.61145,966.558299 1229.55876,966.610289 1229.495,966.645 L1228.195,967.355 C1228.07385,967.421052 1227.99847,967.548014 1227.99847,967.686 C1227.99847,967.823986 1228.07385,967.950948 1228.195,968.017 L1229.495,968.727 C1229.5579,968.76218 1229.60982,968.814101 1229.645,968.877 L1230.355,970.177 C1230.4206,970.298731 1230.54772,970.374632 1230.686,970.374632 C1230.82428,970.374632 1230.9514,970.298731 1231.017,970.177 L1231.727,968.877 C1231.76192,968.813907 1231.81391,968.761923 1231.877,968.727" id="Shape" fill="#D15D64" fill-rule="nonzero" style="mix-blend-mode: lighten;"></path>
            <path d="M1452.057,879.9 L1453.417,879.156 C1453.54311,879.086546 1453.62145,878.953975 1453.62145,878.81 C1453.62145,878.666025 1453.54311,878.533454 1453.417,878.464 L1452.057,877.721 C1451.9914,877.684652 1451.93735,877.630596 1451.901,877.565 L1451.158,876.205 C1451.08899,876.078312 1450.95626,875.999468 1450.812,875.999468 C1450.66774,875.999468 1450.53501,876.078312 1450.466,876.205 L1449.723,877.565 C1449.68691,877.631637 1449.63241,877.686485 1449.566,877.723 L1448.206,878.465 C1448.07989,878.534454 1448.00155,878.667025 1448.00155,878.811 C1448.00155,878.954975 1448.07989,879.087546 1448.206,879.157 L1449.566,879.902 C1449.632,879.939 1449.686,879.992 1449.723,880.058 L1450.466,881.418 C1450.616,881.691 1451.008,881.691 1451.158,881.418 L1451.902,880.058 C1451.93849,879.992169 1451.99294,879.938066 1452.059,879.902" id="Shape" fill="#FCD05C" fill-rule="nonzero" style="mix-blend-mode: lighten;"></path>
            <polygon id="Shape" stroke="#00A959" stroke-width="1.097" stroke-linecap="round" stroke-linejoin="round" points="1670 818 1671.762 818.542 1673.524 818 1672.981 819.762 1673.525 821.524 1671.763 820.981 1670.001 821.525 1670.543 819.763"></polygon>
            <g id="Group" stroke-linecap="round" stroke-linejoin="round" transform="translate(27.000000, 725.000000)" stroke="#E98333" stroke-width="1.097">
                <path d="M1.472,2 L0,0.53 L1.472,2 Z M5.47,6 L4,4.53 L5.47,6 Z M1.543,1.837 C2.26649302,1.11350698 3.43950698,1.11350698 4.163,1.837 C4.88649302,2.56049302 4.88649302,3.73350698 4.163,4.457 C3.43950698,5.18049302 2.26649302,5.18049302 1.543,4.457 C0.819506978,3.73350698 0.819506978,2.56049302 1.543,1.837 Z" id="Shape"></path>
            </g>
        </g>
    </g>
</svg>